<svg id="visual" viewBox="0 0 900 900" width="900" height="900" xmlns="http://www.w3.org/2000/svg" xmlns:xlink="http://www.w3.org/1999/xlink" version="1.1"><rect x="0" y="0" width="900" height="900" fill="#001220"></rect><defs><linearGradient id="grad1_0" x1="0%" y1="100%" x2="100%" y2="0%"><stop offset="30%" stop-color="#001220" stop-opacity="1"></stop><stop offset="70%" stop-color="#001220" stop-opacity="1"></stop></linearGradient></defs><defs><linearGradient id="grad2_0" x1="0%" y1="100%" x2="100%" y2="0%"><stop offset="30%" stop-color="#001220" stop-opacity="1"></stop><stop offset="70%" stop-color="#001220" stop-opacity="1"></stop></linearGradient></defs><g transform="translate(900, 900)"><path d="M-509.1 0C-467 -50 -425 -100.1 -408.4 -169.1C-391.7 -238.2 -400.6 -326.3 -360 -360C-319.4 -393.7 -229.4 -373.2 -161.1 -389C-92.9 -404.8 -46.4 -456.9 0 -509.1L0 0Z" fill="#C62368"></path></g><g transform="translate(0, 0)"><path d="M509.1 0C510.6 75.3 512.2 150.6 470.4 194.8C428.5 239.1 343.4 252.3 292.7 292.7C242.1 333.2 226 401 182.9 441.6C139.9 482.2 69.9 495.7 0 509.1L0 0Z" fill="#C62368"></path></g></svg>